<?xml version="1.0" standalone="no"?>
<!DOCTYPE svg PUBLIC "-//W3C//DTD SVG 20010904//EN"
 "http://www.w3.org/TR/2001/REC-SVG-20010904/DTD/svg10.dtd">
<svg version="1.0" xmlns="http://www.w3.org/2000/svg"
 width="1500.000000pt" height="1500.000000pt" viewBox="0 0 1500.000000 1500.000000"
 preserveAspectRatio="xMidYMid meet">
<metadata>
Created by potrace 1.14, written by Peter Selinger 2001-2017
</metadata>
<g transform="translate(0.000000,1500.000000) scale(0.100000,-0.100000)"
fill="#000000" stroke="none">
<path d="M6848 14095 c-2 -2 -19 -7 -38 -10 -74 -13 -175 -72 -236 -138 -48
-51 -137 -183 -140 -207 0 -3 -8 -23 -18 -45 -10 -22 -19 -44 -20 -50 -1 -5
-4 -14 -7 -20 -5 -8 -30 -77 -34 -95 -1 -3 -7 -17 -13 -33 -7 -15 -14 -38 -16
-51 -2 -14 -9 -34 -16 -45 -6 -12 -8 -21 -4 -21 3 0 2 -6 -3 -12 -5 -7 -18
-35 -28 -63 -10 -27 -27 -68 -38 -90 -12 -22 -20 -43 -19 -47 1 -5 -2 -8 -6
-8 -15 0 -43 -79 -40 -116 1 -25 11 -46 32 -66 51 -52 112 -31 239 81 262 231
440 304 727 297 80 -2 156 -6 170 -10 20 -5 67 -15 100 -21 3 -1 32 -9 65 -19
33 -10 65 -19 70 -21 6 -1 19 -5 30 -9 11 -5 32 -12 47 -18 15 -6 30 -10 32
-9 3 0 22 -8 41 -19 20 -11 42 -20 49 -20 8 0 16 -4 18 -8 2 -4 37 -24 78 -44
239 -117 605 -368 788 -542 161 -153 214 -286 161 -402 -13 -27 -27 -50 -31
-52 -4 -2 -8 -10 -8 -17 0 -7 -3 -15 -8 -17 -4 -1 -23 -23 -42 -48 -19 -25
-41 -52 -47 -60 -45 -54 -103 -137 -103 -147 0 -7 -4 -13 -9 -13 -12 0 -68
-146 -79 -210 -10 -54 -8 -181 3 -230 11 -46 13 -55 15 -60 1 -3 3 -9 4 -15
12 -51 20 -76 27 -81 5 -3 9 -14 9 -25 0 -10 5 -27 10 -37 12 -20 65 -170 162
-457 38 -115 81 -233 93 -261 24 -53 66 -103 88 -105 7 0 20 -2 29 -4 10 -2
20 1 24 6 3 5 9 7 13 4 7 -4 80 69 116 116 19 24 125 190 125 194 0 10 251
377 321 470 97 128 263 363 313 440 21 33 46 71 56 85 14 21 63 105 108 185
25 45 71 154 92 215 12 36 25 72 28 80 26 73 37 229 20 305 -18 84 -61 167
-122 233 -32 34 -62 62 -67 62 -6 0 -19 9 -31 20 -12 11 -28 20 -35 20 -7 0
-13 4 -13 9 0 4 -21 19 -47 32 -27 13 -50 27 -53 31 -6 8 -266 138 -275 138
-4 0 -21 7 -38 15 -54 24 -191 75 -204 75 -7 0 -13 4 -13 9 0 5 -17 12 -37 16
-21 4 -44 12 -52 18 -8 7 -15 11 -15 9 -1 -2 -10 0 -21 3 -54 18 -82 28 -100
35 -11 5 -101 40 -200 78 -261 102 -682 300 -857 404 -27 15 -48 24 -48 20 0
-4 -4 -2 -8 4 -7 12 -94 59 -101 55 -2 -2 -7 1 -10 6 -8 12 -67 45 -276 157
-78 42 -267 120 -318 131 -10 2 -27 7 -37 10 -20 6 -39 11 -110 24 -43 9 -205
13 -212 6z"/>
<path d="M5868 13236 c-27 -13 -48 -22 -48 -19 0 2 -27 -10 -60 -27 -33 -17
-62 -30 -65 -30 -6 1 -241 -121 -310 -160 -329 -184 -618 -410 -762 -596 -51
-65 -96 -174 -101 -245 -2 -37 -1 -76 3 -86 5 -10 9 -22 10 -28 7 -49 124
-273 147 -283 5 -2 8 -8 8 -13 0 -11 133 -196 154 -214 6 -6 27 -30 46 -55 51
-65 63 -81 80 -99 8 -9 35 -41 60 -71 25 -30 49 -60 55 -66 22 -25 73 -83 130
-149 33 -39 62 -72 65 -75 3 -3 27 -32 55 -65 27 -33 54 -65 60 -71 5 -6 28
-32 50 -59 22 -26 45 -53 50 -59 10 -11 85 -102 115 -139 8 -11 20 -24 25 -31
6 -6 30 -38 55 -71 25 -33 48 -62 51 -65 3 -3 21 -27 39 -55 19 -27 37 -51 42
-53 4 -2 8 -10 8 -18 0 -8 5 -14 10 -14 6 0 10 -5 10 -10 0 -6 4 -16 10 -23 5
-7 28 -37 50 -66 91 -125 153 -170 227 -167 58 3 100 45 120 119 13 46 11 215
-2 282 -23 113 -24 119 -34 145 -13 35 -18 54 -19 63 0 4 -8 19 -16 33 -9 13
-14 24 -12 24 8 0 -63 130 -107 194 -22 34 -79 99 -125 146 -111 111 -173 186
-240 290 -61 94 -141 259 -147 300 0 3 -3 10 -6 15 -4 6 -10 24 -14 40 -12 45
-12 45 -15 48 -1 1 -3 9 -5 17 -27 123 -30 155 -30 290 1 114 4 146 24 204 31
95 81 167 160 231 166 134 278 271 371 452 43 86 49 103 57 173 4 36 0 52 -19
80 -13 19 -35 40 -48 47 -39 20 -110 15 -162 -11z"/>
<path d="M7375 13102 c-24 -2 -94 -15 -150 -28 -5 -1 -23 -8 -40 -15 -16 -6
-39 -14 -49 -16 -11 -2 -27 -9 -35 -16 -9 -6 -37 -23 -64 -36 -78 -39 -242
-189 -327 -299 -14 -18 -30 -38 -35 -45 -25 -28 -75 -106 -75 -116 0 -6 -4
-11 -9 -11 -5 0 -14 -15 -22 -32 -7 -18 -16 -35 -20 -38 -8 -5 -70 -139 -73
-155 -1 -5 -4 -14 -7 -20 -7 -11 -29 -78 -33 -98 -2 -7 -8 -30 -14 -52 -40
-147 -48 -394 -16 -498 3 -11 7 -29 9 -40 5 -38 17 -82 28 -94 5 -7 7 -13 3
-13 -3 0 10 -35 30 -77 38 -84 111 -203 125 -203 4 0 10 -9 14 -20 9 -27 60
-62 101 -67 28 -4 39 1 65 26 28 29 31 36 26 79 -25 227 -28 292 -24 392 4 63
8 126 11 140 7 28 14 62 20 88 2 9 9 29 15 45 6 15 9 27 6 27 -2 0 12 30 31
66 45 86 111 171 171 219 26 22 50 42 53 45 10 10 67 42 135 74 94 45 97 46
165 65 25 6 52 15 60 18 8 3 31 7 50 10 19 2 42 6 50 10 25 10 252 13 295 3
22 -4 54 -11 70 -14 169 -29 381 -162 500 -312 71 -90 97 -102 136 -63 16 16
20 31 18 77 -2 53 -32 182 -47 206 -4 6 -7 13 -8 16 -7 38 -69 153 -128 240
-54 80 -258 290 -281 290 -7 0 -15 4 -17 8 -14 37 -295 185 -380 201 -5 0 -9
1 -10 2 -7 2 -46 11 -68 15 -14 3 -45 7 -70 9 -25 2 -45 5 -45 6 0 3 -110 4
-140 1z"/>
<path d="M6546 12974 c-181 -98 -199 -109 -296 -171 -192 -125 -379 -293 -470
-423 -14 -19 -28 -37 -31 -40 -23 -21 -116 -203 -123 -241 -1 -8 -7 -30 -13
-49 -13 -42 -13 -41 -18 -159 -2 -52 -1 -99 2 -105 4 -5 8 -21 9 -34 4 -36 36
-132 45 -138 5 -3 9 -12 9 -21 0 -9 11 -31 25 -49 14 -18 25 -36 25 -41 0 -5
12 -24 28 -42 79 -95 101 -122 142 -171 25 -30 59 -70 77 -89 17 -20 53 -61
80 -91 122 -137 289 -306 388 -391 103 -88 213 -143 270 -135 17 3 33 5 36 5
3 1 18 12 34 25 39 34 43 86 12 163 -13 33 -74 143 -134 244 -60 101 -127 218
-149 259 -21 41 -42 78 -47 81 -5 3 -8 9 -7 13 1 4 -14 44 -33 89 -34 78 -48
113 -52 130 -2 4 -4 9 -5 12 -1 3 -3 8 -4 13 -1 4 -9 32 -18 62 -49 164 -57
374 -18 508 5 18 7 32 4 32 -2 0 5 19 17 43 12 23 21 43 20 45 -6 10 74 139
153 247 263 353 303 428 256 475 -32 32 -71 22 -214 -56z"/>
<path d="M7710 12387 c-3 -2 -30 -7 -60 -11 -30 -3 -65 -8 -77 -11 -13 -3 -33
-7 -45 -10 -41 -9 -123 -38 -135 -48 -7 -5 -13 -7 -13 -3 0 9 -136 -61 -200
-103 -50 -33 -153 -128 -190 -177 -52 -66 -109 -203 -109 -259 0 -11 -2 -114
-5 -230 -6 -221 -11 -298 -19 -312 -14 -24 -25 -331 -15 -428 6 -58 39 -133
71 -163 51 -48 84 -53 295 -48 108 2 208 7 222 11 14 3 41 8 60 9 19 2 35 4
35 5 0 1 14 4 30 6 17 2 41 6 55 10 14 3 34 8 45 10 121 23 233 94 255 160 9
27 9 81 0 93 -2 1 -3 6 -4 12 -1 13 -46 54 -71 65 -11 5 -92 9 -181 9 l-161 1
-49 30 c-38 24 -56 44 -79 91 -17 33 -31 69 -33 80 -1 10 -6 53 -11 94 -9 72
-7 322 3 366 2 12 7 38 10 59 4 20 8 40 11 44 2 4 6 20 9 34 9 50 75 172 116
215 23 24 65 55 94 68 54 25 145 37 168 23 8 -5 8 -9 2 -9 -35 0 -96 -93 -79
-119 3 -6 -2 -11 -13 -11 -41 0 -101 -30 -181 -90 -96 -73 -112 -97 -87 -135
14 -21 24 -25 65 -25 26 0 51 3 54 6 12 13 151 22 192 13 28 -6 96 -78 122
-130 12 -24 38 -80 57 -123 44 -96 82 -135 132 -132 20 1 37 -1 40 -5 7 -12
-54 -86 -75 -92 -29 -7 -79 36 -101 88 -11 26 -16 60 -15 94 4 65 -7 94 -54
144 -34 37 -106 86 -133 91 -7 2 -21 6 -30 11 -10 4 -25 5 -33 2 -8 -4 -17 -2
-20 2 -2 5 -24 7 -47 5 -147 -14 -201 -95 -163 -244 3 -14 7 -30 9 -37 1 -7 5
-16 9 -19 4 -4 7 -15 7 -24 0 -9 8 -34 19 -56 10 -21 25 -57 32 -78 24 -68 85
-116 204 -161 26 -10 41 -13 95 -21 83 -12 260 -8 260 6 0 3 8 6 18 7 56 3
159 55 224 113 56 49 114 147 135 228 14 53 14 180 0 237 -36 146 -186 338
-334 429 -35 22 -63 41 -63 43 0 2 4 2 8 -1 4 -2 26 5 47 17 56 31 74 73 64
149 -4 29 -77 89 -132 110 -49 18 -245 37 -257 25z m299 -591 c-3 -3 -11 5
-18 17 -13 21 -12 21 5 5 10 -10 16 -20 13 -22z m25 -22 c3 -8 2 -12 -4 -9 -6
3 -10 10 -10 16 0 14 7 11 14 -7z"/>
<path d="M9875 11333 c-39 -41 -52 -65 -92 -183 -23 -67 -29 -88 -37 -140 -1
-9 -6 -21 -10 -28 -4 -7 -5 -16 -2 -19 3 -3 1 -12 -4 -19 -6 -6 -13 -29 -15
-50 -2 -22 -5 -40 -6 -41 -2 -4 -5 -14 -13 -63 -4 -25 -11 -58 -16 -75 -5 -16
-11 -50 -15 -75 -3 -25 -10 -63 -15 -84 -5 -22 -7 -43 -4 -47 2 -4 0 -10 -5
-14 -5 -3 -9 -13 -9 -23 1 -16 -5 -52 -19 -117 -3 -16 -7 -41 -9 -55 -3 -26
-9 -56 -25 -128 -5 -23 -12 -59 -15 -80 -8 -46 -12 -66 -14 -69 -3 -4 -5 -12
-14 -63 -5 -25 -12 -52 -16 -60 -4 -8 -10 -31 -13 -50 -8 -57 -65 -217 -116
-325 -179 -376 -451 -546 -861 -539 -82 2 -179 10 -230 18 -14 3 -43 8 -65 12
-22 4 -49 7 -61 8 -11 2 -25 5 -30 9 -6 3 -42 5 -80 4 -80 -3 -133 -29 -165
-81 -23 -38 -24 -68 -4 -127 51 -149 311 -300 630 -366 97 -20 113 -32 28 -22
-78 9 -360 3 -453 -11 -67 -10 -76 -9 -85 6 -5 9 -18 24 -27 33 -10 8 -18 24
-18 34 0 9 -7 20 -15 23 -8 4 -15 14 -15 25 0 10 -6 22 -14 26 -7 4 -30 44
-50 88 -62 135 -86 177 -149 260 -68 90 -222 234 -286 267 -14 7 -28 16 -31
19 -10 13 -147 78 -200 94 -127 40 -271 51 -402 31 -21 -3 -55 -9 -75 -12 -21
-3 -51 -7 -68 -9 -16 -3 -48 -8 -70 -11 -22 -4 -47 -8 -55 -9 -22 -3 -141 -24
-169 -30 -56 -11 -141 -18 -213 -17 -87 0 -153 24 -193 69 -23 25 -75 113 -82
138 -1 6 -12 42 -23 80 -11 39 -23 84 -25 100 -3 17 -8 41 -10 55 -10 49 -13
66 -19 115 -4 28 -9 66 -11 85 -2 19 -7 58 -10 85 -11 101 -17 140 -25 155 -4
8 -8 17 -8 20 3 24 -72 201 -121 285 -140 244 -355 494 -592 690 -67 56 -108
85 -118 85 -6 0 -11 4 -11 9 0 16 -130 72 -175 76 -62 5 -92 -21 -105 -95 -6
-30 -10 -71 -8 -90 1 -20 -1 -40 -4 -45 -11 -20 2 -349 18 -430 2 -11 7 -40
10 -65 3 -25 10 -65 15 -90 15 -71 19 -94 23 -115 2 -11 4 -20 6 -20 1 0 3 -9
5 -20 2 -11 9 -38 15 -60 6 -22 13 -50 15 -62 8 -33 62 -188 97 -273 69 -170
229 -452 305 -537 10 -12 28 -34 39 -49 24 -35 206 -218 259 -262 77 -63 220
-155 327 -208 59 -30 110 -54 113 -54 3 1 26 -8 51 -20 26 -11 52 -20 58 -20
6 0 35 -9 64 -20 28 -11 52 -17 52 -14 0 4 6 2 13 -4 6 -5 26 -12 42 -15 17
-3 50 -10 75 -16 98 -22 258 -31 375 -20 82 8 156 18 165 24 3 2 26 6 50 10
25 4 50 11 56 16 7 5 16 9 20 8 5 -2 36 3 69 11 33 8 62 14 65 15 3 0 10 3 15
6 21 11 185 10 239 -1 60 -12 78 -31 58 -59 -7 -9 -15 -23 -19 -31 -15 -31
-38 -49 -57 -45 -165 34 -710 41 -886 11 -22 -4 -43 -8 -130 -21 -14 -3 -36
-7 -50 -10 -14 -4 -38 -8 -55 -11 -16 -3 -61 -14 -100 -25 -38 -11 -77 -22
-85 -24 -8 -2 -15 -4 -15 -5 0 -1 -7 -3 -15 -5 -60 -12 -322 -130 -389 -174
-14 -10 -48 -33 -76 -51 -121 -82 -252 -206 -325 -310 -14 -19 -33 -43 -42
-54 -10 -11 -18 -26 -18 -33 0 -7 -4 -13 -9 -13 -21 0 -155 -303 -176 -400 -2
-8 -8 -30 -14 -47 -5 -18 -8 -33 -5 -33 3 0 0 -8 -5 -18 -9 -17 -20 -84 -26
-157 -1 -16 -5 -39 -8 -50 -5 -19 -11 -104 -22 -360 -3 -55 -5 -100 -6 -100
-2 0 -8 -41 -14 -111 -10 -100 -13 -124 -19 -150 -2 -12 -7 -37 -10 -55 -7
-40 -12 -65 -35 -159 -7 -25 -13 -52 -15 -60 -3 -8 -10 -28 -16 -45 -6 -16
-13 -37 -15 -45 -2 -8 -16 -42 -31 -75 -15 -33 -27 -63 -26 -67 1 -5 -2 -8 -7
-8 -5 0 -12 -8 -16 -19 -6 -19 -18 -35 -77 -100 -41 -45 -45 -93 -10 -128 23
-23 31 -25 86 -20 34 3 72 8 86 12 14 3 31 7 38 9 7 1 18 8 24 14 7 7 17 12
23 12 24 0 126 80 210 164 114 115 248 292 242 317 -3 11 -2 17 2 15 13 -8 39
22 108 124 93 140 113 174 113 193 0 9 8 21 19 26 10 6 34 34 52 63 18 29 67
105 108 168 46 71 76 126 77 144 0 20 7 30 18 32 22 3 5 -18 130 163 127 184
129 186 121 211 -5 16 -2 20 18 20 18 0 46 29 129 133 58 72 132 161 164 196
61 67 78 95 69 118 -2 8 -1 12 4 8 17 -10 55 13 111 65 78 74 178 162 203 179
12 8 24 18 27 21 3 4 30 24 60 45 83 58 95 75 78 108 -8 16 -7 18 10 13 53
-17 68 -14 168 39 57 30 105 55 108 55 2 0 2 -9 -1 -20 -3 -11 -9 -20 -13 -20
-5 0 -13 -12 -19 -27 -24 -59 -47 -87 -81 -96 -48 -12 -235 -139 -357 -241
-122 -102 -140 -129 -120 -169 7 -16 6 -17 -13 -7 -11 6 -29 8 -40 5 -18 -6
-81 -70 -130 -134 -14 -17 -36 -45 -50 -61 -32 -37 -41 -48 -70 -90 -14 -19
-28 -37 -31 -40 -3 -3 -29 -40 -58 -83 -50 -74 -58 -103 -38 -134 6 -9 1 -13
-13 -13 -40 0 -59 -20 -132 -142 -90 -153 -100 -175 -96 -216 4 -29 1 -33 -15
-28 -22 6 -45 -16 -72 -69 -11 -22 -23 -42 -26 -45 -4 -3 -23 -32 -43 -65 -20
-33 -50 -81 -66 -106 -16 -25 -31 -56 -33 -69 -2 -12 -13 -28 -25 -34 -11 -6
-40 -38 -63 -71 -24 -33 -45 -62 -48 -65 -3 -3 -24 -27 -46 -55 -22 -27 -46
-55 -53 -60 -11 -9 -18 -28 -21 -58 -1 -5 -6 -5 -11 -2 -6 4 -47 -30 -93 -74
-96 -93 -186 -168 -296 -245 -100 -71 -113 -97 -66 -141 23 -21 35 -23 118
-23 50 0 95 2 100 5 5 3 26 7 46 9 20 2 46 6 59 9 12 3 32 8 45 11 12 3 36 7
52 10 17 3 37 8 45 11 8 4 22 8 30 9 8 2 22 5 30 7 8 2 31 7 50 11 19 5 40 11
45 14 6 4 15 7 20 8 6 1 17 3 25 5 19 5 15 -28 -6 -48 -8 -8 -14 -21 -14 -29
0 -8 -6 -17 -14 -20 -8 -3 -17 -16 -20 -30 -4 -13 -11 -24 -16 -24 -6 0 -10
-9 -10 -19 0 -10 -7 -21 -15 -25 -8 -3 -15 -15 -15 -26 0 -11 -6 -23 -14 -26
-8 -3 -17 -13 -20 -22 -3 -9 -19 -39 -36 -67 -16 -27 -34 -59 -40 -70 -6 -11
-19 -33 -30 -50 -11 -16 -23 -37 -27 -45 -4 -8 -13 -21 -20 -28 -7 -7 -13 -20
-13 -28 0 -8 -4 -14 -10 -14 -5 0 -12 -11 -16 -25 -3 -14 -10 -25 -14 -25 -5
0 -12 -10 -16 -22 -3 -12 -13 -28 -20 -36 -8 -7 -14 -20 -14 -28 0 -8 -4 -14
-9 -14 -5 0 -13 -10 -17 -22 -3 -12 -13 -28 -20 -36 -20 -19 -17 -31 9 -43 24
-11 30 -9 212 76 28 13 97 44 155 70 58 26 128 57 155 70 28 13 176 80 330
150 327 148 371 168 445 203 30 15 57 27 60 27 3 1 28 11 55 24 28 13 93 42
145 66 52 23 129 58 170 78 117 55 154 70 163 69 4 -1 7 3 7 8 0 6 7 10 15 10
8 0 23 4 33 10 20 11 146 69 350 160 l142 64 0 483 0 483 34 72 c18 40 36 80
39 88 3 8 6 -239 6 -550 l1 -565 418 -189 c229 -104 451 -205 492 -224 183
-85 543 -248 625 -284 50 -22 111 -51 137 -64 26 -14 50 -25 53 -24 3 0 29
-10 58 -24 28 -13 81 -37 117 -54 66 -30 286 -131 350 -159 19 -9 64 -29 99
-46 52 -24 67 -27 87 -18 28 12 30 24 9 45 -8 8 -15 22 -15 30 0 9 -5 16 -10
16 -6 0 -13 8 -17 18 -3 9 -26 50 -50 89 -23 40 -43 77 -43 82 0 5 -4 11 -8
13 -5 2 -36 50 -70 108 -33 58 -68 112 -76 121 -9 9 -16 23 -16 31 0 9 -7 18
-15 22 -8 3 -15 15 -15 26 0 11 -4 20 -10 20 -5 0 -12 11 -16 24 -3 14 -12 27
-20 30 -8 3 -14 14 -14 25 0 11 -4 21 -8 23 -11 4 -82 123 -82 136 0 5 -7 12
-15 16 -8 3 -15 12 -15 19 0 8 -12 32 -28 53 -15 21 -36 57 -47 79 -11 22 -23
42 -26 45 -3 3 -19 27 -35 53 -16 27 -39 65 -51 85 -12 21 -30 52 -39 70 -10
17 -21 32 -26 32 -4 0 -8 9 -8 20 0 11 -4 20 -10 20 -5 0 -12 11 -16 25 -3 14
-10 25 -14 25 -4 0 -20 25 -35 55 -16 30 -32 55 -37 55 -4 0 -8 6 -8 14 0 8 8
13 18 11 9 -2 17 -4 17 -5 0 -1 7 -3 15 -5 8 -2 33 -9 55 -15 44 -12 113 -28
160 -38 17 -3 67 -6 113 -6 71 -1 86 2 97 18 8 10 12 22 10 27 -8 11 16 23 24
12 8 -13 68 -34 114 -40 52 -7 82 2 101 31 19 31 10 63 -34 113 -26 29 -65 94
-69 115 -1 4 -9 24 -17 45 -9 20 -18 45 -20 55 -2 10 -6 26 -8 36 -36 156 -49
258 -61 497 -10 177 -22 246 -70 393 -3 7 -4 14 -4 17 0 21 -111 213 -154 265
-60 74 -182 180 -239 207 -21 10 -38 21 -38 24 0 7 -138 71 -200 92 -61 22
-158 48 -195 53 -100 13 -92 20 25 20 124 0 168 4 245 24 22 6 51 13 65 16 39
8 184 79 237 115 66 46 78 56 148 124 87 85 163 183 232 300 31 53 83 160 83
171 0 7 5 14 11 16 5 2 12 12 14 23 2 11 4 21 5 23 2 1 3 5 5 10 1 4 7 21 14
37 19 46 80 229 85 257 7 39 47 129 77 173 31 45 77 91 129 125 19 13 37 27
40 30 3 3 26 16 53 30 26 13 47 28 47 32 0 5 6 8 13 8 27 0 124 105 156 167
17 35 30 64 30 65 -1 2 4 27 11 56 11 50 10 202 -3 257 -48 204 -113 327 -369
700 -53 77 -107 149 -119 159 -13 11 -42 21 -65 24 -37 3 -45 0 -79 -35z
m-2289 -2730 c32 -27 34 -31 34 -92 0 -51 -3 -62 -12 -53 -7 7 -25 12 -40 12
l-28 0 0 80 c0 44 2 80 6 80 3 0 21 -12 40 -27z m208 -156 c11 -17 28 -47 39
-66 10 -19 26 -41 35 -50 14 -15 14 -16 -9 -19 -24 -4 -59 -28 -57 -41 0 -3
-1 -8 -2 -11 -4 -11 -19 -85 -26 -130 -3 -19 -7 -41 -9 -48 -3 -7 -8 -50 -11
-95 -4 -45 -8 -84 -10 -86 -7 -7 -4 546 2 563 10 25 27 19 48 -17z m-390 17
c30 -11 18 -40 -24 -57 l-40 -15 23 39 c12 21 23 39 24 39 1 0 8 -3 17 -6z
m1249 -31 c-7 -2 -19 -2 -25 0 -7 3 -2 5 12 5 14 0 19 -2 13 -5z m-432 -252
c43 -22 74 -32 91 -29 20 4 24 1 21 -12 -3 -12 14 -32 58 -66 35 -26 103 -83
151 -126 49 -43 93 -78 98 -78 6 0 10 -6 10 -13 0 -14 11 -28 73 -97 18 -19
58 -68 90 -108 32 -39 61 -72 65 -72 4 0 13 -15 21 -32 8 -18 17 -35 21 -38 3
-3 16 -22 29 -42 12 -21 26 -38 29 -38 4 0 13 -13 20 -30 7 -16 27 -44 43 -61
16 -17 29 -35 29 -39 0 -14 34 -70 43 -70 4 0 7 -4 7 -9 0 -11 97 -159 117
-179 7 -7 13 -18 13 -23 0 -9 30 -55 163 -248 21 -31 50 -68 65 -83 14 -15 23
-30 21 -33 -3 -2 -38 27 -78 65 -41 39 -78 70 -82 70 -5 0 -9 5 -9 11 0 14
-139 189 -150 189 -4 0 -11 11 -14 24 -7 30 -111 196 -135 216 -10 9 -21 28
-24 43 -10 37 -126 227 -140 228 -7 1 -15 1 -18 1 -3 -1 -4 9 -2 21 5 25 -60
124 -165 250 -67 80 -95 103 -114 91 -7 -4 -8 -3 -4 4 11 17 -17 53 -85 107
-33 28 -66 55 -72 60 -26 23 -106 75 -116 75 -6 0 -11 4 -11 9 0 5 -13 12 -30
16 -16 4 -44 20 -61 36 -17 16 -35 29 -40 29 -5 0 -9 8 -9 18 0 9 4 13 8 7 4
-5 37 -25 73 -44z m-456 -586 c16 -100 75 -238 142 -334 72 -104 247 -270 370
-351 94 -62 368 -207 405 -214 7 -2 34 -12 61 -24 26 -12 49 -21 52 -21 3 -1
19 -8 35 -16 17 -9 30 -13 30 -9 0 4 7 1 15 -6 8 -7 15 -9 15 -5 0 4 9 -4 20
-18 11 -14 20 -28 20 -32 0 -4 13 -26 28 -49 15 -22 31 -48 35 -56 4 -8 16
-28 27 -45 11 -16 23 -37 27 -45 3 -8 9 -17 12 -20 11 -9 31 -44 42 -72 6 -16
15 -28 20 -28 5 0 9 -6 9 -13 0 -8 12 -32 28 -54 45 -64 52 -77 65 -105 6 -16
15 -28 19 -28 4 0 8 -7 8 -15 0 -8 4 -15 8 -15 4 0 14 -16 21 -35 7 -19 17
-35 22 -35 5 0 9 -5 9 -10 0 -6 12 -29 27 -53 45 -69 47 -72 77 -128 16 -30
32 -55 37 -57 5 -2 9 -10 9 -17 0 -8 6 -20 13 -27 15 -17 31 -42 58 -93 12
-22 25 -42 28 -45 4 -3 12 -16 19 -30 14 -29 35 -63 43 -70 3 -3 9 -12 12 -20
4 -8 16 -28 27 -45 40 -61 40 -62 27 -73 -9 -8 -35 0 -92 29 -44 21 -88 39
-97 39 -10 0 -18 5 -18 10 0 6 -4 10 -10 10 -5 0 -43 16 -85 35 -41 19 -109
51 -150 70 -42 19 -77 35 -80 35 -3 0 -37 15 -77 34 -40 18 -95 44 -123 56
-27 12 -84 38 -125 57 -41 19 -93 43 -115 53 -108 48 -164 74 -212 97 -29 14
-55 24 -58 24 -3 -1 -26 10 -53 23 -26 13 -69 34 -97 46 -27 12 -84 38 -125
57 -41 19 -88 41 -105 48 -16 7 -70 32 -118 54 -49 23 -95 41 -103 41 -8 0
-14 4 -14 9 0 4 -20 16 -45 25 l-45 18 1 796 c1 438 5 772 9 742 5 -30 11 -73
15 -95z m-345 -1103 l0 -348 -62 -29 c-35 -15 -109 -50 -165 -76 -57 -27 -105
-49 -108 -49 -2 0 -42 -17 -87 -39 -121 -56 -170 -78 -195 -85 -13 -4 -23 -11
-23 -15 0 -5 -20 -14 -45 -21 -25 -7 -45 -17 -45 -23 0 -6 -3 -7 -6 -4 -4 4
-19 0 -33 -7 -14 -8 -51 -25 -81 -39 -55 -26 -149 -69 -272 -126 -37 -17 -72
-31 -78 -31 -5 0 -10 -4 -10 -10 0 -5 -6 -10 -14 -10 -7 0 -44 -14 -82 -31
-38 -17 -91 -41 -119 -54 -27 -12 -60 -25 -72 -29 -13 -4 -23 -11 -23 -16 0
-4 -12 -11 -27 -15 -16 -3 -55 -19 -88 -35 -33 -15 -82 -38 -110 -50 -27 -12
-83 -38 -124 -57 -53 -25 -76 -31 -81 -22 -5 6 14 46 42 93 28 44 62 101 77
125 14 24 43 70 63 102 21 33 34 59 30 59 -4 0 -2 4 4 8 15 10 77 115 77 130
0 6 4 12 8 12 4 0 18 18 30 40 17 30 33 43 68 56 25 9 57 21 71 27 14 6 30 11
35 13 11 2 109 40 140 53 80 35 225 93 231 91 4 -1 10 2 13 7 3 5 35 22 71 37
77 34 329 163 350 180 8 7 32 21 53 31 20 11 37 23 37 27 0 5 6 8 13 8 7 0 23
9 35 20 12 11 25 20 31 20 5 0 11 3 13 8 2 4 19 18 39 32 117 80 289 239 379
348 19 23 36 42 37 42 2 0 3 -157 3 -348z"/>
<path d="M8275 10971 c-38 -17 -55 -34 -115 -113 -90 -119 -243 -245 -382
-315 -101 -51 -246 -99 -325 -109 -32 -3 -61 -8 -66 -11 -10 -6 -238 -6 -278
1 -19 3 -50 8 -69 11 -19 2 -50 9 -67 14 -18 5 -33 8 -33 6 0 -9 -207 68 -310
115 -78 37 -131 55 -167 58 -48 4 -55 2 -83 -26 -59 -59 -32 -161 75 -287 32
-38 125 -119 220 -193 75 -58 344 -201 455 -241 19 -7 44 -17 55 -21 61 -25
105 -39 105 -35 0 3 16 -1 35 -9 19 -8 35 -13 35 -10 0 3 8 0 18 -5 9 -5 33
-12 52 -16 19 -3 55 -10 80 -15 25 -5 70 -13 100 -17 72 -10 395 -10 440 0 19
5 42 8 50 8 8 1 22 3 30 6 8 4 26 8 40 10 14 2 32 6 40 10 8 3 21 7 28 9 8 1
21 6 30 10 9 4 24 8 32 10 43 9 163 78 201 116 40 40 94 139 104 187 2 11 6
25 9 30 7 11 20 140 20 201 0 52 -11 174 -19 210 -2 14 -7 34 -9 45 -8 39 -28
110 -34 120 -4 6 -7 15 -8 20 -5 28 -60 128 -91 164 -62 73 -129 94 -198 62z"/>
<path d="M9504 10936 c-12 -6 -30 -18 -39 -26 -21 -18 -115 -155 -115 -169 0
-5 -4 -11 -8 -13 -8 -3 -102 -154 -102 -164 0 -3 -8 -13 -17 -24 -10 -10 -27
-36 -38 -57 -11 -21 -25 -43 -31 -50 -6 -6 -26 -35 -45 -65 -18 -29 -36 -55
-39 -58 -3 -3 -17 -21 -30 -40 -13 -19 -27 -37 -30 -40 -3 -3 -21 -25 -40 -50
-64 -83 -167 -191 -253 -263 -160 -136 -405 -251 -587 -275 -99 -13 -319 -6
-400 12 -24 6 -43 10 -102 21 -15 3 -39 10 -53 15 -14 5 -25 7 -25 5 0 -2 -11
0 -25 5 -14 5 -36 12 -48 14 -12 3 -53 14 -92 26 -38 11 -74 22 -80 24 -5 1
-44 13 -85 26 -41 13 -77 24 -80 25 -3 1 -52 16 -110 35 -58 19 -107 35 -110
35 -3 0 -18 5 -35 12 -16 6 -84 28 -150 48 -66 20 -137 43 -157 51 -21 8 -38
12 -38 9 0 -2 -16 3 -35 11 -19 8 -35 12 -35 10 0 -3 -18 1 -39 9 -37 13 -125
13 -180 1 -55 -12 -135 -63 -182 -115 -27 -30 -49 -60 -49 -68 0 -7 -4 -13 -9
-13 -8 0 -40 -75 -45 -103 -1 -6 -4 -16 -8 -22 -12 -19 -6 -148 9 -191 22 -64
91 -122 157 -131 28 -4 56 -6 61 -4 6 2 28 4 50 6 45 4 101 22 166 55 57 30
179 34 295 10 46 -10 84 -16 84 -13 0 2 8 -1 18 -6 9 -5 31 -12 47 -15 40 -7
79 -18 205 -56 58 -17 115 -33 126 -35 12 -3 38 -12 58 -20 20 -8 36 -13 36
-10 0 2 20 -4 45 -15 25 -11 49 -19 53 -18 4 1 19 -4 35 -10 15 -7 38 -14 51
-16 14 -2 33 -9 43 -14 10 -6 20 -10 23 -10 3 0 25 -5 50 -12 43 -12 53 -14
100 -24 11 -3 24 -7 28 -10 5 -3 19 -7 33 -10 22 -5 43 -9 87 -20 41 -11 220
-48 247 -52 114 -16 155 -19 280 -19 125 0 184 4 250 19 11 2 20 5 20 6 0 1 9
3 20 4 32 4 175 67 175 77 0 5 5 9 11 9 36 0 210 155 303 269 108 134 242 364
325 561 26 61 117 330 125 370 3 14 17 79 31 144 28 132 35 281 16 339 -13 39
-53 78 -80 76 -9 -1 -26 -6 -37 -13z"/>
<path d="M7620 4703 c0 -698 3 -1278 6 -1290 6 -23 44 -33 44 -13 0 6 6 10 14
10 8 0 21 6 28 14 8 8 37 26 64 40 27 15 63 35 79 46 17 11 37 23 45 27 14 6
93 53 136 81 10 6 30 17 44 23 13 5 27 13 30 17 7 10 59 39 93 53 15 6 27 15
27 20 0 5 7 9 15 9 8 0 15 5 15 11 0 5 5 7 10 4 6 -3 10 -2 10 3 0 5 8 12 18
16 9 3 33 15 52 27 19 12 55 33 80 47 25 13 52 30 60 37 8 6 22 15 30 19 8 4
24 12 35 19 11 7 51 30 88 52 38 22 81 48 95 57 15 10 34 21 42 25 8 3 38 21
65 38 28 17 57 34 65 38 8 4 29 16 45 27 17 11 41 25 55 30 13 6 27 14 30 18
3 4 16 13 30 20 14 7 39 21 55 32 54 34 79 49 108 61 15 6 27 15 27 20 0 5 4
9 9 9 9 0 80 40 129 72 15 10 39 23 55 29 15 6 27 15 27 20 0 5 6 9 14 9 8 0
21 7 30 15 8 8 25 20 38 25 13 6 37 19 53 30 54 35 80 49 108 61 15 6 27 15
27 19 0 5 9 12 21 15 11 4 56 29 100 56 44 27 85 49 90 49 5 0 9 5 9 11 0 5 5
7 10 4 6 -3 10 -1 10 4 0 6 7 11 15 11 8 0 15 4 15 9 0 5 10 13 23 17 12 3 27
11 34 16 27 22 -4 38 -377 208 -173 78 -342 155 -375 170 -33 15 -150 68 -260
118 -110 49 -240 108 -288 131 -49 23 -90 41 -92 41 -1 0 -41 17 -87 39 -45
21 -184 85 -308 141 -124 56 -267 122 -319 146 -51 24 -95 44 -96 44 -2 0 -58
25 -124 55 -66 30 -123 55 -126 55 -3 0 -5 -570 -5 -1267z m195 1042 c22 -10
86 -40 143 -66 57 -27 106 -49 109 -49 4 0 34 -13 67 -29 34 -16 86 -40 116
-54 30 -13 81 -36 113 -51 31 -14 83 -38 115 -52 97 -44 145 -65 207 -94 33
-15 87 -40 120 -55 166 -75 263 -119 340 -155 33 -15 87 -40 120 -55 33 -15
83 -37 110 -50 28 -13 73 -33 100 -45 28 -12 77 -34 110 -50 33 -15 81 -37
107 -49 71 -33 71 -41 1 -84 -23 -14 -44 -31 -48 -37 -3 -5 -14 -10 -25 -10
-10 0 -20 -7 -24 -15 -3 -8 -12 -15 -21 -15 -13 0 -88 -43 -105 -60 -3 -3 -23
-14 -44 -25 -22 -11 -44 -25 -50 -30 -6 -6 -30 -19 -53 -29 -23 -10 -50 -26
-61 -35 -18 -16 -23 -19 -102 -62 -25 -13 -49 -30 -53 -36 -4 -7 -16 -13 -26
-13 -11 0 -21 -7 -25 -15 -3 -8 -12 -15 -21 -15 -16 0 -97 -49 -103 -62 -2 -5
-12 -8 -23 -8 -10 0 -19 -4 -19 -10 0 -5 -15 -17 -32 -25 -60 -28 -93 -48 -96
-57 -2 -4 -12 -8 -22 -8 -10 0 -20 -7 -24 -15 -3 -8 -14 -15 -25 -15 -10 0
-21 -7 -25 -15 -3 -8 -12 -15 -21 -15 -17 0 -90 -43 -100 -60 -3 -5 -15 -10
-25 -10 -10 0 -23 -6 -27 -12 -4 -7 -29 -24 -55 -38 -27 -13 -48 -28 -48 -31
0 -4 -13 -10 -29 -14 -16 -3 -32 -13 -35 -21 -3 -8 -14 -14 -25 -14 -10 0 -21
-7 -25 -15 -3 -8 -15 -15 -26 -15 -11 0 -20 -4 -20 -9 0 -5 -9 -13 -20 -16
-11 -3 -26 -12 -33 -18 -6 -7 -38 -25 -70 -42 -31 -16 -57 -33 -57 -36 0 -4
-11 -10 -25 -13 -14 -4 -25 -11 -25 -16 0 -6 -9 -10 -20 -10 -11 0 -23 -7 -26
-15 -4 -8 -15 -15 -25 -15 -10 0 -19 -4 -19 -10 0 -5 -11 -12 -24 -16 -14 -3
-32 -14 -42 -25 -9 -10 -23 -19 -31 -19 -7 0 -22 -6 -33 -12 -17 -11 -22 -10
-30 2 -6 9 -10 407 -10 1041 0 1004 2 1060 29 1045 3 -2 24 -11 46 -21z"/>
<path d="M7230 5825 c-162 -74 -313 -143 -335 -153 -22 -10 -58 -27 -80 -37
-22 -10 -166 -75 -320 -145 -154 -70 -307 -140 -340 -155 -33 -15 -92 -42
-132 -61 -40 -19 -74 -34 -77 -34 -2 0 -42 -18 -88 -39 -45 -22 -153 -71 -238
-109 -85 -39 -189 -85 -230 -104 -41 -19 -119 -54 -172 -78 -53 -24 -106 -51
-118 -60 -26 -19 -18 -48 16 -56 13 -3 24 -9 24 -13 0 -3 21 -18 48 -31 26
-14 49 -28 52 -31 3 -3 39 -25 80 -48 112 -65 116 -67 375 -221 262 -156 283
-169 335 -196 19 -11 37 -22 40 -25 3 -3 26 -18 52 -32 25 -14 64 -37 87 -51
22 -14 43 -26 45 -26 2 0 41 -23 86 -51 45 -28 89 -53 98 -56 10 -4 19 -9 22
-13 7 -9 263 -159 350 -206 19 -11 37 -21 40 -24 6 -6 120 -76 152 -93 13 -7
79 -46 148 -87 69 -40 127 -72 129 -71 2 1 7 -1 10 -6 8 -12 215 -133 227
-133 5 0 14 10 19 23 12 26 9 2557 -3 2557 -4 -1 -140 -61 -302 -135z m190
-1110 c0 -563 -3 -1030 -6 -1039 -6 -16 -40 -22 -46 -8 -1 4 -29 21 -60 37
-32 17 -58 33 -58 38 0 4 -9 7 -20 7 -11 0 -20 3 -20 8 0 4 -21 18 -47 32 -27
13 -50 27 -53 31 -3 3 -22 14 -42 24 -21 9 -38 21 -38 26 0 5 -9 9 -20 9 -11
0 -20 4 -20 9 0 5 -13 14 -30 20 -16 5 -30 15 -30 20 0 6 -9 11 -20 11 -11 0
-20 4 -20 9 0 5 -10 13 -22 17 -12 3 -31 15 -42 25 -11 11 -28 19 -38 19 -10
0 -18 5 -18 10 0 6 -6 10 -13 10 -7 0 -23 9 -35 20 -12 11 -26 20 -32 20 -6 0
-16 5 -23 10 -23 20 -88 60 -96 60 -5 0 -14 7 -21 15 -7 8 -21 15 -31 15 -11
0 -19 4 -19 10 0 5 -11 12 -24 16 -14 3 -27 12 -30 20 -3 8 -14 14 -24 14 -11
0 -25 7 -32 15 -7 8 -16 15 -21 15 -7 0 -60 32 -94 57 -15 11 -62 37 -115 65
-25 13 -51 29 -58 36 -7 6 -20 12 -28 12 -8 0 -17 7 -20 15 -4 8 -15 15 -25
15 -10 0 -19 4 -19 9 0 5 -13 14 -30 20 -16 5 -30 15 -30 20 0 6 -9 11 -19 11
-11 0 -21 3 -23 8 -5 10 -86 62 -98 62 -6 0 -23 8 -38 19 -66 46 -124 81 -133
81 -5 0 -9 4 -9 9 0 5 -13 12 -29 16 -16 3 -32 13 -35 21 -3 8 -14 14 -24 14
-10 0 -27 9 -37 20 -10 11 -23 20 -29 20 -6 0 -24 12 -39 26 -22 20 -26 29
-16 40 6 8 17 14 25 14 7 0 19 6 26 13 7 7 32 18 55 25 23 7 49 19 57 27 8 8
20 15 26 15 7 0 33 11 59 24 26 12 63 29 84 35 20 7 37 17 37 22 0 6 4 8 9 5
4 -3 17 1 27 9 10 8 24 15 30 15 7 0 63 24 125 54 132 61 204 95 274 126 28
12 73 32 100 45 28 12 82 37 120 54 39 17 81 38 95 45 14 7 42 19 63 25 20 7
37 16 37 21 0 4 12 11 27 15 15 3 54 19 87 34 34 16 71 32 83 35 11 4 27 13
33 21 7 8 19 15 27 15 8 0 52 18 99 40 47 22 87 40 90 40 2 0 55 24 117 53
162 77 160 76 175 65 9 -8 12 -227 12 -1033z"/>
<path d="M9920 4280 c-36 -21 -70 -39 -76 -40 -7 0 -14 -7 -18 -15 -3 -8 -15
-15 -26 -15 -11 0 -20 -3 -20 -7 0 -5 -26 -21 -58 -38 -31 -16 -60 -34 -63
-38 -6 -9 -40 -30 -69 -43 -8 -4 -57 -32 -108 -63 -51 -31 -108 -64 -125 -74
-159 -92 -192 -112 -195 -119 -2 -4 -12 -8 -22 -8 -10 0 -20 -7 -24 -15 -3 -8
-12 -15 -20 -15 -8 0 -38 -16 -68 -35 -29 -19 -61 -38 -70 -41 -10 -3 -18 -10
-18 -15 0 -5 -9 -9 -20 -9 -11 0 -20 -3 -20 -7 0 -5 -29 -24 -65 -43 -36 -19
-65 -38 -65 -42 0 -5 -9 -8 -20 -8 -11 0 -20 -4 -20 -9 0 -5 -13 -14 -30 -21
-16 -7 -30 -16 -30 -21 0 -5 -7 -9 -15 -9 -12 0 -71 -34 -101 -59 -6 -5 -20
-12 -32 -15 -12 -4 -22 -12 -22 -17 0 -5 -4 -9 -9 -9 -11 0 -153 -80 -161 -91
-3 -3 -15 -9 -27 -13 -13 -4 -23 -12 -23 -17 0 -5 -9 -9 -19 -9 -11 0 -21 -3
-23 -7 -1 -5 -15 -15 -30 -23 -78 -43 -143 -85 -146 -92 -2 -4 -12 -8 -23 -8
-11 0 -22 -7 -25 -15 -4 -8 -11 -15 -18 -15 -6 0 -35 -16 -65 -35 -29 -19 -59
-35 -66 -35 -7 0 -15 -7 -19 -15 -3 -8 -10 -15 -16 -15 -11 0 -150 -79 -160
-90 -3 -4 -13 -9 -22 -13 -17 -6 -18 -64 -18 -1032 0 -1174 -9 -1086 93 -942
112 158 206 292 239 340 18 26 38 53 43 60 6 7 26 34 45 62 19 27 39 54 43 60
4 5 39 55 77 110 90 129 102 146 118 161 6 7 12 15 12 18 0 3 7 14 15 23 8 10
45 61 82 114 37 54 98 140 136 192 37 52 67 100 67 106 0 6 4 11 8 11 5 0 23
23 41 50 18 28 37 50 42 50 5 0 9 6 9 13 0 7 8 22 18 33 10 10 41 54 70 97 28
43 58 85 67 93 8 9 15 19 15 23 0 4 8 16 18 27 10 10 27 34 37 52 11 17 23 32
27 32 4 0 8 5 8 10 0 6 5 16 10 23 6 7 52 71 102 142 51 72 94 132 98 135 3 3
18 25 34 49 16 25 33 50 38 55 27 34 78 106 78 111 0 4 11 21 25 39 34 42 37
45 65 86 13 19 28 40 32 45 5 6 43 60 85 120 42 61 79 112 82 115 4 3 19 25
35 49 16 25 33 50 38 55 4 6 39 54 75 106 37 52 75 104 85 114 10 11 18 24 18
29 0 5 14 26 30 47 17 21 30 42 30 48 0 6 4 12 9 14 18 6 121 158 121 178 0
20 -36 60 -54 60 -6 0 -40 -18 -76 -40z m-403 -461 c9 -9 1 -27 -30 -72 -23
-32 -47 -68 -53 -79 -6 -10 -21 -29 -33 -42 -11 -12 -21 -28 -21 -34 0 -7 -4
-12 -10 -12 -5 0 -10 -4 -10 -9 0 -6 -11 -22 -25 -37 -14 -15 -25 -32 -25 -38
0 -6 -11 -23 -25 -38 -14 -15 -25 -31 -25 -37 0 -5 -3 -11 -7 -13 -5 -1 -26
-29 -47 -60 -22 -32 -43 -58 -48 -58 -4 0 -8 -7 -8 -15 0 -8 -4 -15 -10 -15
-5 0 -10 -6 -10 -13 0 -7 -18 -34 -40 -61 -22 -26 -40 -51 -40 -55 0 -3 -14
-22 -30 -41 -17 -19 -33 -43 -36 -52 -3 -10 -10 -18 -15 -18 -5 0 -9 -7 -9
-15 0 -8 -3 -15 -7 -15 -5 0 -19 -18 -33 -40 -13 -22 -28 -40 -32 -40 -4 0 -8
-6 -8 -12 0 -7 -11 -26 -25 -43 -13 -16 -28 -35 -33 -40 -5 -6 -25 -36 -46
-69 -20 -32 -41 -63 -47 -69 -12 -14 -78 -106 -99 -138 -8 -12 -30 -42 -47
-66 -18 -24 -33 -46 -33 -49 0 -3 -6 -11 -12 -19 -28 -28 -48 -56 -48 -64 0
-4 -11 -21 -25 -37 -40 -46 -46 -54 -40 -54 4 0 0 -6 -7 -14 -14 -15 -187
-256 -203 -284 -16 -28 -69 -97 -77 -100 -5 -2 -8 -10 -8 -18 0 -8 -4 -14 -10
-14 -5 0 -10 -5 -10 -10 0 -10 -8 -22 -37 -55 -7 -7 -13 -18 -13 -24 0 -6 -3
-11 -8 -11 -4 0 -18 -18 -32 -40 -14 -22 -28 -40 -32 -40 -5 0 -8 -6 -8 -13 0
-7 -11 -24 -25 -39 -14 -15 -25 -32 -25 -38 0 -5 -4 -10 -9 -10 -5 0 -12 -8
-15 -18 -4 -10 -14 -27 -24 -38 -9 -10 -26 -32 -36 -49 -11 -16 -23 -34 -28
-40 -4 -5 -18 -23 -29 -38 -17 -22 -24 -25 -35 -16 -12 10 -14 127 -14 734 l0
723 28 11 c15 6 41 20 57 31 17 11 37 23 45 27 8 4 33 19 55 34 22 14 60 38
85 51 25 14 63 36 85 49 67 40 99 58 128 71 15 7 27 16 27 20 0 4 7 8 15 8 8
0 15 4 15 8 0 4 12 13 28 19 15 7 45 23 67 37 22 14 58 36 80 48 22 12 47 27
56 33 36 22 166 99 194 114 17 9 32 19 33 24 2 4 7 7 12 7 5 0 32 16 61 35 30
19 57 35 62 35 4 0 13 5 20 10 14 12 222 136 294 175 26 15 62 35 78 45 17 11
50 31 75 45 77 43 104 59 130 78 29 20 32 21 47 6z"/>
<path d="M5130 4288 c-11 -12 -20 -27 -20 -33 0 -17 24 -65 33 -65 4 0 7 -7 7
-15 0 -8 4 -15 10 -15 5 0 17 -16 26 -35 9 -19 20 -35 24 -35 5 0 19 -17 31
-37 13 -21 31 -47 41 -57 10 -11 18 -26 18 -33 0 -7 5 -13 12 -13 6 0 9 -3 5
-6 -3 -3 5 -17 19 -31 13 -13 24 -28 24 -32 0 -4 11 -21 25 -37 14 -16 42 -54
63 -84 20 -30 40 -56 45 -58 4 -2 7 -10 7 -18 0 -8 4 -14 9 -14 5 0 12 -8 15
-17 3 -10 19 -34 36 -53 16 -19 30 -38 30 -42 0 -4 6 -13 13 -20 8 -7 26 -33
42 -57 15 -25 36 -54 46 -65 11 -11 19 -26 19 -33 0 -7 4 -13 8 -13 4 0 16
-13 25 -30 10 -16 23 -35 30 -42 16 -16 77 -105 77 -112 0 -3 12 -18 26 -33
14 -15 33 -41 41 -58 9 -16 22 -35 29 -42 7 -8 21 -27 31 -43 9 -17 21 -30 25
-30 4 0 8 -6 8 -13 0 -7 10 -23 23 -37 12 -14 43 -54 67 -90 25 -36 53 -74 63
-84 9 -11 17 -25 17 -31 0 -6 11 -22 25 -35 14 -13 25 -28 25 -34 0 -6 16 -29
35 -50 19 -22 35 -43 35 -46 0 -4 11 -20 25 -36 14 -16 25 -32 25 -36 0 -7 43
-68 90 -128 11 -14 20 -31 20 -37 0 -7 4 -13 8 -13 5 0 24 -21 43 -47 18 -27
37 -52 41 -58 5 -5 29 -41 54 -80 25 -38 50 -71 55 -73 5 -2 9 -10 9 -18 0 -8
5 -14 10 -14 6 0 10 -7 10 -15 0 -8 4 -15 9 -15 5 0 32 -36 61 -80 29 -44 61
-89 71 -101 10 -12 19 -25 19 -28 0 -3 14 -22 30 -41 16 -19 30 -38 30 -42 0
-4 6 -13 13 -20 16 -16 130 -178 137 -194 3 -6 15 -24 27 -40 58 -74 123 -164
123 -169 0 -3 5 -11 10 -18 24 -27 120 -162 120 -169 0 -4 14 -22 30 -40 17
-18 30 -37 30 -43 0 -7 11 -22 25 -35 14 -13 25 -29 25 -37 0 -7 4 -13 8 -13
5 0 15 -11 22 -25 7 -14 22 -25 32 -25 17 0 18 38 18 1030 0 893 -2 1030 -14
1030 -8 0 -35 14 -59 30 -25 17 -49 30 -54 30 -5 0 -18 8 -29 18 -10 9 -39 27
-64 40 -53 27 -83 45 -90 53 -3 4 -33 21 -67 39 -35 17 -63 36 -63 41 0 5 -8
9 -19 9 -10 0 -24 7 -31 15 -7 8 -19 15 -27 15 -7 0 -16 7 -19 15 -4 8 -10 12
-15 9 -5 -3 -9 0 -9 5 0 6 -6 11 -14 11 -7 0 -19 7 -26 15 -7 8 -21 15 -31 15
-11 0 -19 4 -19 9 0 5 -10 13 -22 17 -12 3 -28 13 -36 20 -7 8 -20 14 -28 14
-8 0 -14 4 -14 9 0 5 -15 14 -32 22 -18 7 -35 16 -38 19 -3 3 -54 35 -115 70
-60 36 -111 68 -113 72 -2 5 -12 8 -22 8 -11 0 -23 6 -27 13 -4 6 -26 21 -48
32 -22 11 -49 28 -59 38 -11 9 -28 17 -38 17 -10 0 -18 4 -18 10 0 5 -24 21
-52 36 -72 35 -95 48 -115 65 -10 8 -39 25 -65 38 -27 12 -48 27 -48 32 0 5
-8 9 -19 9 -10 0 -24 7 -31 15 -7 8 -19 15 -27 15 -7 0 -16 7 -19 15 -4 8 -10
12 -15 9 -5 -3 -9 0 -9 5 0 6 -9 11 -20 11 -11 0 -20 3 -20 8 0 4 -21 18 -47
32 -27 13 -50 27 -53 31 -6 7 -59 36 -82 45 -10 3 -18 10 -18 15 0 5 -4 9 -10
9 -5 0 -39 18 -75 40 -36 22 -70 40 -75 40 -6 0 -10 3 -10 8 0 4 -29 22 -65
40 -36 19 -65 38 -65 43 0 5 -9 9 -19 9 -11 0 -23 5 -26 11 -4 5 -17 15 -28
20 -12 5 -35 18 -52 28 -39 26 -50 25 -75 -1z m652 -541 c68 -41 200 -118 293
-172 94 -54 177 -104 186 -112 8 -7 21 -13 28 -13 6 0 17 -5 24 -10 20 -18
118 -79 202 -126 44 -25 127 -74 185 -109 58 -35 111 -64 118 -65 6 0 12 -4
12 -8 0 -5 15 -16 33 -25 34 -18 82 -47 122 -73 14 -9 25 -12 25 -8 0 5 4 4 8
-2 4 -6 22 -20 41 -30 18 -10 41 -24 50 -29 9 -6 47 -28 84 -50 38 -22 81 -48
95 -57 15 -10 38 -23 52 -28 13 -6 27 -14 30 -18 3 -4 14 -12 25 -18 20 -11
20 -23 23 -731 2 -799 4 -785 -57 -701 -16 24 -34 48 -39 53 -4 6 -32 44 -60
85 -29 41 -72 102 -96 135 -24 33 -70 98 -102 145 -32 47 -61 87 -65 90 -3 3
-21 28 -39 55 -19 28 -38 55 -42 60 -38 47 -68 89 -68 94 0 4 -8 16 -18 27
-10 10 -33 42 -52 69 -19 28 -37 52 -42 53 -4 2 -8 8 -8 12 0 8 -77 124 -103
155 -4 6 -30 42 -58 80 -27 39 -56 78 -64 88 -8 9 -15 19 -15 22 0 2 -22 35
-49 72 -41 58 -182 256 -226 318 -146 207 -247 347 -255 355 -4 3 -21 29 -40
58 -18 28 -37 52 -40 52 -4 0 -13 13 -20 29 -6 16 -19 37 -29 47 -9 11 -43 57
-75 104 -33 47 -64 88 -70 92 -6 4 -7 8 -3 8 5 0 -5 17 -22 37 -23 28 -28 40
-19 50 6 7 12 13 14 13 1 0 58 -33 126 -73z"/>
</g>
</svg>
